<svg width="1392" height="150" viewBox="0 0 1392 150" fill="none" xmlns="http://www.w3.org/2000/svg">
<g clip-path="url(#clip0_408_43377)">
<g clip-path="url(#clip1_408_43377)">
<path d="M207.948 14.7956H196.46V20.1975H201.696V34.2894C201.696 37.3426 199.742 38.9866 196.773 38.9866C193.803 38.9866 191.693 37.4209 191.693 34.2894V30.8447H185.91V34.4459C185.91 40.7873 190.755 44.5451 196.851 44.5451C202.946 44.5451 208.026 40.7873 208.026 34.4459V14.7956H207.948Z" fill="#383535"/>
<path d="M225.296 24.3473L229.359 33.9768H221.232L225.296 24.3473ZM231.313 39.3003L233.579 44.1542H240.065V43.293L226.702 14.5613H223.811L210.37 43.293V44.1542H216.856L219.122 39.3003H231.313Z" fill="#383535"/>
<path d="M256.241 32.0195C257.179 32.0195 258.038 32.0978 258.742 32.5675C259.601 33.1938 260.07 34.2899 260.07 35.4642C259.914 37.4214 258.663 38.674 256.553 38.674H249.598V31.9412H256.241V32.0195ZM255.303 20.198C257.491 20.198 258.82 21.6072 258.82 23.721C258.742 25.6782 257.413 26.8525 255.303 26.8525H249.598V20.198H255.303ZM264.915 23.5644C264.915 18.0842 261.086 14.8744 255.694 14.8744H243.269V44.1542H256.866C262.727 44.1542 266.166 40.6312 266.166 35.4642C266.166 32.4892 264.681 30.0623 262.024 28.9663C263.821 27.792 264.915 25.6782 264.915 23.5644Z" fill="#383535"/>
<path d="M282.185 24.3473L286.248 33.9768H278.199L282.185 24.3473ZM288.28 39.3003L290.546 44.1542H297.032V43.293L283.669 14.5613H280.778L267.337 43.293V44.1542H273.823L276.089 39.3003H288.28Z" fill="#383535"/>
<path d="M306.413 29.2802V20.2771H312.665C315.322 20.2771 316.963 22.2343 316.963 24.7395C317.041 27.2448 315.322 29.2802 312.665 29.2802H306.413ZM317.823 33.4295C321.183 31.7855 323.059 28.4974 323.059 24.8178C323.059 19.6508 319.386 14.7969 312.743 14.7969C308.601 14.7187 304.46 14.7969 300.24 14.7969V44.155H306.491V34.4473H311.727L317.745 44.155H324.465V43.2938L317.823 33.4295Z" fill="#383535"/>
<path d="M195.443 84.4726V66.5446H199.975C205.289 66.5446 208.18 70.7721 208.18 75.4694C208.18 80.1667 205.367 84.4726 199.975 84.4726H195.443ZM189.191 60.9078V90.1876H200.053C209.509 90.1876 214.51 82.9851 214.354 75.4694C214.354 68.0321 209.353 60.9861 200.053 60.9861H189.191V60.9078Z" fill="#383535"/>
<path d="M227.874 85.1774V65.6837H231.703V60.8298H217.872V65.6837H221.623V85.1774H217.481V90.1096H232.016V85.1774H227.874Z" fill="#383535"/>
<path d="M235.144 75.4705C235.144 85.1782 242.333 90.5018 250.07 90.5018C255.696 90.5018 260.854 87.9966 263.12 82.125C264.058 79.4632 264.136 76.7231 263.98 73.9047H250.304V79.15H258.275C257.025 83.5342 254.133 84.7868 250.07 84.7868C244.834 84.7868 241.474 81.029 241.474 75.4705C241.474 70.2252 244.6 66.0759 250.07 66.0759C253.43 66.0759 255.774 67.172 257.181 70.0686H263.355C261.714 63.2576 255.853 60.4392 250.07 60.4392C242.411 60.5175 235.144 65.7628 235.144 75.4705Z" fill="#383535"/>
<path d="M277.655 85.1774V65.6837H281.406V60.8298H267.574V65.6837H271.325V85.1774H267.184V90.1096H281.719V85.1774H277.655Z" fill="#383535"/>
<path d="M292.189 66.31V90.1096H298.285V66.31H306.021V60.8298H284.375V66.31H292.189Z" fill="#383535"/>
<path d="M319.23 70.3802L323.294 80.0097H315.167L319.23 70.3802ZM325.248 85.255L327.514 90.1088H334V89.2477L320.637 60.5159H317.745L304.304 89.2477V90.1088H310.79L313.057 85.255H325.248Z" fill="#383535"/>
<path d="M342.439 60.8298H336.187V90.1096H354.629V84.5511H342.439V60.8298Z" fill="#383535"/>
<path d="M187.552 127.531C187.552 133.951 193.647 136.847 199.43 136.847C205.213 136.691 211.152 134.577 211.152 127.688C211.152 120.798 205.838 119.467 199.665 118.919C196.617 118.606 194.038 117.98 194.038 115.396C194.038 113.126 196.539 111.795 199.039 111.795C201.54 111.795 204.041 112.813 204.353 115.162H210.214C210.214 108.585 204.51 106.315 199.039 106.315C193.257 106.315 187.943 109.055 187.943 115.553C187.943 121.659 193.257 123.382 198.571 123.852C201.384 124.086 204.978 124.321 204.978 127.688C204.978 130.741 202.009 131.367 199.352 131.367C196.539 131.367 193.569 130.271 193.491 127.531H187.552Z" fill="#383535"/>
<path d="M234.126 106.863H216.231V136.143H234.439V130.506H222.56V123.774H233.345V118.293H222.56V112.343H234.126V106.863Z" fill="#383535"/>
<path d="M246.317 121.347V112.343H252.569C255.226 112.343 256.867 114.301 256.867 116.806C256.945 119.311 255.226 121.347 252.569 121.347H246.317ZM257.727 125.496C261.087 123.852 262.963 120.564 262.963 116.884C262.963 111.717 259.29 106.863 252.647 106.863C248.506 106.785 244.364 106.863 240.144 106.863V136.221H246.396V126.514H251.631L257.649 136.221H264.369V135.36L257.727 125.496Z" fill="#383535"/>
<path d="M278.826 125.731L275.544 116.258L271.637 106.863H264.995V107.803L277.576 136.456H280.155L292.58 107.803V106.863H285.938L282.03 116.336L278.983 125.731H278.826Z" fill="#383535"/>
<path d="M305.161 131.211V111.717H308.912V106.863H295.08V111.717H298.909V131.211H294.768V136.143H309.303V131.211H305.161Z" fill="#383535"/>
<path d="M312.429 121.581C312.429 131.289 319.697 136.456 327.355 136.456C333.45 136.456 339.702 133.246 340.953 125.496H334.935C333.919 129.019 330.95 130.741 327.355 130.741C322.119 130.741 318.759 126.592 318.759 121.503C318.759 115.945 322.197 112.187 327.433 112.187C330.95 112.187 333.607 113.674 334.857 116.962H340.953C339.624 109.76 333.372 106.55 327.433 106.55C319.697 106.472 312.429 111.795 312.429 121.581Z" fill="#383535"/>
<path d="M362.679 106.863H344.784V136.143H363.07V130.506H351.113V123.774H361.976V118.293H351.113V112.343H362.679V106.863Z" fill="#383535"/>
<path fill-rule="evenodd" clip-rule="evenodd" d="M57.8283 51.4353C60.1727 51.4353 62.1264 53.3925 62.1264 55.7411C62.1264 58.0898 60.1727 60.047 57.8283 60.047C55.4839 60.047 53.5303 58.0898 53.5303 55.7411C53.6084 53.3142 55.4839 51.4353 57.8283 51.4353ZM41.1832 51.4353C43.5275 51.4353 45.4812 53.3925 45.4812 55.7411C45.4812 58.0898 43.6057 60.047 41.1832 60.047C38.8388 60.047 36.8851 58.0898 36.8851 55.7411C36.8851 53.3142 38.7606 51.4353 41.1832 51.4353ZM24.4598 51.4353C26.8042 51.4353 28.7579 53.3925 28.7579 55.7411C28.7579 58.0898 26.8824 60.047 24.4598 60.047C22.1154 60.047 20.1618 58.0898 20.1618 55.7411C20.1618 53.3142 22.1154 51.4353 24.4598 51.4353ZM48.6071 17.1451H25.4757C23.1313 17.1451 21.1777 19.1023 21.1777 21.4509C21.1777 23.7996 23.1313 25.7568 25.4757 25.7568H65.1741C67.5185 25.7568 69.394 27.714 69.394 30.0626C69.394 32.4113 67.4403 34.3685 65.096 34.3685H2.57883C1.64107 34.3685 0.781464 34.8382 0.312586 35.6994C0.156293 36.0125 0 36.4823 0 36.952C0 37.4217 0.0781464 37.8132 0.312586 38.2829L9.92459 55.1148C10.2372 55.6628 10.8624 55.8977 11.4094 55.7411C12.0345 55.5845 12.4253 55.0365 12.4253 54.4885V42.8236H80.3345C82.6789 42.8236 84.6326 44.7808 84.6326 47.1294C84.6326 49.4781 82.6789 51.4353 80.3345 51.4353H74.5517C72.2073 51.4353 70.2536 53.3925 70.2536 55.7411C70.2536 58.0898 72.2073 60.047 74.5517 60.047H81.9756C95.2605 60.1253 107.139 65.9186 115.344 75C122.455 67.0146 126.753 56.524 126.753 45.0157C126.753 20.2766 106.826 0.156576 82.1319 0L46.7315 0C44.3872 0 42.4335 1.9572 42.4335 4.30585C42.4335 6.65449 44.3872 8.61169 46.7315 8.61169H48.3726H48.6852C51.0296 8.61169 52.9833 10.5689 52.9833 12.9175C52.9051 15.1879 50.9515 17.1451 48.6071 17.1451Z" fill="#1BACE3"/>
<path d="M81.9764 0C123.16 0 156.841 33.7422 156.841 75C156.841 116.258 123.16 150 81.9764 150C106.749 149.922 126.754 129.802 126.754 104.984C126.754 93.476 122.456 82.9854 115.345 75C122.456 67.0146 126.754 56.524 126.754 45.0157C126.832 20.1983 106.749 0.0782881 81.9764 0Z" fill="#009457"/>
<path fill-rule="evenodd" clip-rule="evenodd" d="M115.345 75C107.14 84.238 95.1831 90.0313 81.8982 90.0313H36.8859C21.4911 90.0313 8.83134 101.618 7.11212 116.571V123.46C8.83134 138.413 21.4911 150 36.8859 150H81.9764C106.749 149.922 126.754 129.802 126.754 104.984C126.832 93.476 122.456 82.9854 115.345 75Z" fill="#FFC630"/>
</g>
<rect x="1037" width="355" height="99" rx="49.5" fill="#16A75C"/>
<path d="M1101.31 61.452C1101.72 61.452 1102.09 61.6107 1102.4 61.928L1105.37 65.148C1103.73 67.1827 1101.7 68.7413 1099.3 69.824C1096.91 70.9067 1094.03 71.448 1090.67 71.448C1087.67 71.448 1084.96 70.9347 1082.55 69.908C1080.16 68.8813 1078.12 67.4533 1076.42 65.624C1074.72 63.7947 1073.41 61.6107 1072.5 59.072C1071.6 56.5333 1071.16 53.7613 1071.16 50.756C1071.16 47.7133 1071.64 44.932 1072.61 42.412C1073.58 39.8733 1074.95 37.6893 1076.7 35.86C1078.47 34.0307 1080.58 32.612 1083.03 31.604C1085.47 30.5773 1088.18 30.064 1091.15 30.064C1094.1 30.064 1096.71 30.5493 1098.99 31.52C1101.28 32.4907 1103.23 33.76 1104.84 35.328L1102.32 38.828C1102.17 39.052 1101.97 39.248 1101.73 39.416C1101.51 39.584 1101.19 39.668 1100.78 39.668C1100.5 39.668 1100.21 39.5933 1099.91 39.444C1099.61 39.276 1099.29 39.08 1098.93 38.856C1098.58 38.6133 1098.17 38.352 1097.7 38.072C1097.23 37.792 1096.69 37.54 1096.08 37.316C1095.46 37.0733 1094.74 36.8773 1093.92 36.728C1093.12 36.56 1092.18 36.476 1091.12 36.476C1089.31 36.476 1087.65 36.8027 1086.14 37.456C1084.64 38.0907 1083.35 39.024 1082.27 40.256C1081.19 41.4693 1080.35 42.9627 1079.75 44.736C1079.15 46.4907 1078.86 48.4973 1078.86 50.756C1078.86 53.0333 1079.17 55.0587 1079.81 56.832C1080.46 58.6053 1081.34 60.0987 1082.44 61.312C1083.54 62.5253 1084.84 63.4587 1086.33 64.112C1087.83 64.7467 1089.43 65.064 1091.15 65.064C1092.17 65.064 1093.1 65.008 1093.92 64.896C1094.76 64.784 1095.53 64.6067 1096.22 64.364C1096.93 64.1213 1097.59 63.8133 1098.2 63.44C1098.84 63.048 1099.46 62.572 1100.08 62.012C1100.27 61.844 1100.46 61.7133 1100.67 61.62C1100.87 61.508 1101.09 61.452 1101.31 61.452ZM1121.55 41.824C1123.68 41.824 1125.61 42.1693 1127.35 42.86C1129.1 43.5507 1130.59 44.5307 1131.83 45.8C1133.08 47.0693 1134.04 48.6187 1134.71 50.448C1135.38 52.2773 1135.72 54.3213 1135.72 56.58C1135.72 58.8573 1135.38 60.9107 1134.71 62.74C1134.04 64.5693 1133.08 66.128 1131.83 67.416C1130.59 68.704 1129.1 69.6933 1127.35 70.384C1125.61 71.0747 1123.68 71.42 1121.55 71.42C1119.4 71.42 1117.45 71.0747 1115.7 70.384C1113.94 69.6933 1112.44 68.704 1111.19 67.416C1109.96 66.128 1109 64.5693 1108.31 62.74C1107.63 60.9107 1107.3 58.8573 1107.3 56.58C1107.3 54.3213 1107.63 52.2773 1108.31 50.448C1109 48.6187 1109.96 47.0693 1111.19 45.8C1112.44 44.5307 1113.94 43.5507 1115.7 42.86C1117.45 42.1693 1119.4 41.824 1121.55 41.824ZM1121.55 66.1C1123.94 66.1 1125.7 65.2973 1126.84 63.692C1128 62.0867 1128.58 59.7347 1128.58 56.636C1128.58 53.5373 1128 51.176 1126.84 49.552C1125.7 47.928 1123.94 47.116 1121.55 47.116C1119.12 47.116 1117.32 47.9373 1116.15 49.58C1114.99 51.204 1114.41 53.556 1114.41 56.636C1114.41 59.716 1114.99 62.068 1116.15 63.692C1117.32 65.2973 1119.12 66.1 1121.55 66.1ZM1140.99 71V42.272H1145.22C1146.12 42.272 1146.71 42.692 1146.99 43.532L1147.43 45.66C1147.94 45.1 1148.46 44.5867 1149 44.12C1149.56 43.6533 1150.15 43.252 1150.77 42.916C1151.4 42.58 1152.07 42.3187 1152.78 42.132C1153.51 41.9267 1154.3 41.824 1155.16 41.824C1156.97 41.824 1158.46 42.3187 1159.61 43.308C1160.79 44.2787 1161.67 45.576 1162.25 47.2C1162.69 46.248 1163.25 45.436 1163.93 44.764C1164.6 44.0733 1165.34 43.5133 1166.14 43.084C1166.94 42.6547 1167.79 42.3373 1168.69 42.132C1169.6 41.9267 1170.52 41.824 1171.43 41.824C1173.02 41.824 1174.43 42.0667 1175.66 42.552C1176.89 43.0373 1177.93 43.7467 1178.77 44.68C1179.61 45.6133 1180.24 46.752 1180.67 48.096C1181.12 49.44 1181.34 50.98 1181.34 52.716V71H1174.43V52.716C1174.43 50.8867 1174.02 49.5147 1173.22 48.6C1172.42 47.6667 1171.24 47.2 1169.69 47.2C1168.98 47.2 1168.32 47.3213 1167.71 47.564C1167.11 47.8067 1166.58 48.1613 1166.11 48.628C1165.66 49.076 1165.31 49.6453 1165.05 50.336C1164.78 51.0267 1164.65 51.82 1164.65 52.716V71H1157.71V52.716C1157.71 50.7933 1157.32 49.3933 1156.53 48.516C1155.77 47.6387 1154.64 47.2 1153.15 47.2C1152.14 47.2 1151.2 47.452 1150.32 47.956C1149.46 48.4413 1148.66 49.1133 1147.91 49.972V71H1140.99ZM1187.92 71V42.272H1192.14C1193.04 42.272 1193.63 42.692 1193.91 43.532L1194.36 45.66C1194.86 45.1 1195.38 44.5867 1195.92 44.12C1196.48 43.6533 1197.07 43.252 1197.69 42.916C1198.32 42.58 1198.99 42.3187 1199.7 42.132C1200.43 41.9267 1201.23 41.824 1202.08 41.824C1203.89 41.824 1205.38 42.3187 1206.54 43.308C1207.71 44.2787 1208.59 45.576 1209.17 47.2C1209.62 46.248 1210.18 45.436 1210.85 44.764C1211.52 44.0733 1212.26 43.5133 1213.06 43.084C1213.86 42.6547 1214.71 42.3373 1215.61 42.132C1216.52 41.9267 1217.44 41.824 1218.35 41.824C1219.94 41.824 1221.35 42.0667 1222.58 42.552C1223.81 43.0373 1224.85 43.7467 1225.69 44.68C1226.53 45.6133 1227.16 46.752 1227.59 48.096C1228.04 49.44 1228.26 50.98 1228.26 52.716V71H1221.35V52.716C1221.35 50.8867 1220.95 49.5147 1220.14 48.6C1219.34 47.6667 1218.17 47.2 1216.62 47.2C1215.91 47.2 1215.24 47.3213 1214.63 47.564C1214.03 47.8067 1213.5 48.1613 1213.03 48.628C1212.58 49.076 1212.23 49.6453 1211.97 50.336C1211.71 51.0267 1211.58 51.82 1211.58 52.716V71H1204.63V52.716C1204.63 50.7933 1204.24 49.3933 1203.46 48.516C1202.69 47.6387 1201.56 47.2 1200.07 47.2C1199.06 47.2 1198.12 47.452 1197.24 47.956C1196.38 48.4413 1195.58 49.1133 1194.83 49.972V71H1187.92ZM1259.59 42.272V71H1255.36C1254.45 71 1253.87 70.58 1253.63 69.74L1253.15 67.444C1251.97 68.6387 1250.68 69.6093 1249.26 70.356C1247.84 71.084 1246.17 71.448 1244.25 71.448C1242.68 71.448 1241.29 71.1867 1240.07 70.664C1238.88 70.1227 1237.87 69.3667 1237.05 68.396C1236.23 67.4253 1235.6 66.2773 1235.17 64.952C1234.76 63.608 1234.56 62.1333 1234.56 60.528V42.272H1241.47V60.528C1241.47 62.2827 1241.88 63.6453 1242.68 64.616C1243.5 65.568 1244.72 66.044 1246.35 66.044C1247.54 66.044 1248.66 65.7827 1249.71 65.26C1250.75 64.7187 1251.74 63.9813 1252.67 63.048V42.272H1259.59ZM1272.92 45.8C1273.49 45.2213 1274.1 44.6893 1274.74 44.204C1275.39 43.7 1276.07 43.28 1276.78 42.944C1277.51 42.5893 1278.28 42.3187 1279.1 42.132C1279.92 41.9267 1280.82 41.824 1281.79 41.824C1283.36 41.824 1284.75 42.0947 1285.96 42.636C1287.18 43.1587 1288.18 43.9053 1288.99 44.876C1289.81 45.828 1290.42 46.976 1290.84 48.32C1291.26 49.6453 1291.48 51.1107 1291.48 52.716V71H1284.56V52.716C1284.56 50.9613 1284.16 49.608 1283.36 48.656C1282.56 47.6853 1281.33 47.2 1279.69 47.2C1278.5 47.2 1277.38 47.4707 1276.33 48.012C1275.29 48.5533 1274.3 49.2907 1273.36 50.224V71H1266.45V42.272H1270.68C1271.57 42.272 1272.16 42.692 1272.44 43.532L1272.92 45.8ZM1305.22 42.272V71H1298.28V42.272H1305.22ZM1306.18 33.9C1306.18 34.4973 1306.06 35.0573 1305.81 35.58C1305.57 36.1027 1305.24 36.56 1304.83 36.952C1304.44 37.344 1303.97 37.6613 1303.43 37.904C1302.89 38.128 1302.31 38.24 1301.7 38.24C1301.1 38.24 1300.53 38.128 1299.99 37.904C1299.47 37.6613 1299.01 37.344 1298.62 36.952C1298.22 36.56 1297.91 36.1027 1297.66 35.58C1297.44 35.0573 1297.33 34.4973 1297.33 33.9C1297.33 33.284 1297.44 32.7053 1297.66 32.164C1297.91 31.6227 1298.22 31.156 1298.62 30.764C1299.01 30.372 1299.47 30.064 1299.99 29.84C1300.53 29.5973 1301.1 29.476 1301.7 29.476C1302.31 29.476 1302.89 29.5973 1303.43 29.84C1303.97 30.064 1304.44 30.372 1304.83 30.764C1305.24 31.156 1305.57 31.6227 1305.81 32.164C1306.06 32.7053 1306.18 33.284 1306.18 33.9ZM1321.85 71.448C1319.35 71.448 1317.43 70.748 1316.08 69.348C1314.76 67.9293 1314.1 65.9787 1314.1 63.496V47.452H1311.16C1310.78 47.452 1310.46 47.3307 1310.2 47.088C1309.94 46.8453 1309.81 46.4813 1309.81 45.996V43.252L1314.43 42.496L1315.89 34.656C1315.98 34.2827 1316.16 33.9933 1316.42 33.788C1316.68 33.5827 1317.02 33.48 1317.43 33.48H1321.01V42.524H1328.68V47.452H1321.01V63.02C1321.01 63.916 1321.23 64.616 1321.66 65.12C1322.1 65.624 1322.71 65.876 1323.48 65.876C1323.9 65.876 1324.26 65.8293 1324.54 65.736C1324.84 65.624 1325.09 65.512 1325.3 65.4C1325.52 65.288 1325.72 65.1853 1325.88 65.092C1326.05 64.98 1326.22 64.924 1326.39 64.924C1326.59 64.924 1326.76 64.98 1326.89 65.092C1327.02 65.1853 1327.16 65.3347 1327.31 65.54L1329.38 68.9C1328.38 69.74 1327.22 70.3747 1325.91 70.804C1324.6 71.2333 1323.25 71.448 1321.85 71.448ZM1359.21 42.272L1343.56 78.896C1343.35 79.3813 1343.08 79.7453 1342.74 79.988C1342.43 80.2493 1341.93 80.38 1341.26 80.38H1336.11L1341.48 68.844L1329.86 42.272H1335.94C1336.48 42.272 1336.9 42.4027 1337.2 42.664C1337.52 42.9253 1337.75 43.224 1337.9 43.56L1344 58.456C1344.21 58.96 1344.38 59.464 1344.51 59.968C1344.66 60.472 1344.8 60.9853 1344.93 61.508C1345.1 60.9853 1345.26 60.472 1345.43 59.968C1345.6 59.4453 1345.79 58.932 1345.99 58.428L1351.76 43.56C1351.91 43.1867 1352.15 42.8787 1352.49 42.636C1352.84 42.3933 1353.23 42.272 1353.66 42.272H1359.21Z" fill="white"/>
</g>
<defs>
<clipPath id="clip0_408_43377">
<rect width="1392" height="150" fill="white"/>
</clipPath>
<clipPath id="clip1_408_43377">
<rect width="363.068" height="150" fill="white"/>
</clipPath>
</defs>
</svg>
